<svg width="96" height="96" viewBox="0 0 96 96" fill="none" xmlns="http://www.w3.org/2000/svg">
<circle cx="48" cy="48" r="46.8" stroke="white" stroke-width="2.4"/>
<path fill-rule="evenodd" clip-rule="evenodd" d="M72.6429 33.118C72.6429 31.827 71.5964 30.7805 70.3054 30.7805L25.0492 30.7805C23.7582 30.7805 22.7116 31.827 22.7116 33.118V62.4328C22.7116 63.7238 23.7582 64.7704 25.0492 64.7704H70.3054C71.5964 64.7704 72.6429 63.7238 72.6429 62.4328V33.118ZM70.3054 28.9368C72.6146 28.9368 74.4866 30.8088 74.4866 33.118V62.4328C74.4866 64.7421 72.6146 66.6141 70.3054 66.6141H25.0492C22.7399 66.6141 20.8679 64.7421 20.8679 62.4328V33.118C20.8679 30.8088 22.7399 28.9368 25.0492 28.9368L70.3054 28.9368Z" fill="white"/>
<path fill-rule="evenodd" clip-rule="evenodd" d="M20.8567 46.0307C20.8567 45.5153 21.2746 45.0974 21.79 45.0974H26.45C26.9655 45.0974 27.3834 45.5153 27.3834 46.0307V61.7307C27.3834 62.2462 26.9655 62.6641 26.45 62.6641H21.79C21.2746 62.6641 20.8567 62.2462 20.8567 61.7307V46.0307ZM22.7234 46.9641V60.7974H25.5167V46.9641H22.7234Z" fill="white"/>
<path fill-rule="evenodd" clip-rule="evenodd" d="M52.5967 35.1789C52.5967 34.6635 53.0146 34.2456 53.5301 34.2456H66.4701C66.9855 34.2456 67.4034 34.6635 67.4034 35.1789V60.8189C67.4034 61.3344 66.9855 61.7523 66.4701 61.7523H53.5301C53.0146 61.7523 52.5967 61.3344 52.5967 60.8189V35.1789ZM54.4634 36.1123V59.8856H65.5367V36.1123H54.4634Z" fill="white"/>
<path fill-rule="evenodd" clip-rule="evenodd" d="M33.9258 35.1789C33.9258 34.6635 34.3437 34.2456 34.8592 34.2456H47.7992C48.3146 34.2456 48.7325 34.6635 48.7325 35.1789V60.8189C48.7325 61.3344 48.3146 61.7523 47.7992 61.7523H34.8592C34.3437 61.7523 33.9258 61.3344 33.9258 60.8189V35.1789ZM35.7925 36.1123V59.8856H46.8658V36.1123H35.7925Z" fill="white"/>
</svg>
