<svg width="96" height="96" viewBox="0 0 96 96" fill="none" xmlns="http://www.w3.org/2000/svg">
<circle cx="48" cy="48" r="46.8" stroke="white" stroke-width="2.4"/>
<g>
<path d="M73.0008 39.8429C72.2619 37.5547 72.5769 34.12 70.6563 31.468C68.7205 28.7951 65.3539 28.0354 63.4528 26.645C61.5718 25.2693 59.8218 22.2756 56.6577 21.2431C53.5828 20.2397 50.4385 21.6013 48.0005 21.6013C45.5629 21.6013 42.4188 20.2394 39.3434 21.243C36.1798 22.2753 34.4284 25.2696 32.5486 26.6447C30.6496 28.0334 27.2804 28.7952 25.345 31.4677C23.4261 34.1175 23.7379 37.5601 23.0003 39.8427C22.2983 42.0153 20.0005 44.6227 20.0005 47.9993C20.0005 51.378 22.2957 53.9753 23.0003 56.1557C23.7392 58.4438 23.4242 61.8785 25.3448 64.5305C27.2804 67.2036 30.647 67.9632 32.5483 69.3537C34.429 70.7292 36.1793 73.7231 39.3434 74.7555C42.4162 75.7582 45.5654 74.3973 48.0005 74.3973C50.4323 74.3973 53.5888 75.7568 56.6577 74.7556C59.8214 73.7233 61.5717 70.7296 63.4525 69.3539C65.3515 67.9651 68.7207 67.2033 70.656 64.5309C72.5751 61.8809 72.2631 58.4387 73.0008 56.1558C73.7028 53.9832 76.0005 51.3758 76.0005 47.9993C76.0005 44.6208 73.706 42.0242 73.0008 39.8429ZM68.8379 54.8105C67.9766 57.4765 68.2022 60.4602 67.1128 61.9645C66.0088 63.4889 63.1083 64.1851 60.8702 65.8223C58.6565 67.4411 57.105 70.0074 55.3006 70.5962C53.5934 71.1533 50.8114 70.022 48.0007 70.022C45.1694 70.022 42.416 71.1557 40.7006 70.5962C38.8964 70.0074 37.3471 67.4429 35.131 65.8222C32.9061 64.195 29.9891 63.4844 28.8883 61.9643C27.8024 60.465 28.0195 57.4607 27.1634 54.8106C26.3243 52.2142 24.3755 49.966 24.3755 47.9993C24.3755 46.0306 26.3225 43.7902 27.1632 41.1881C28.0245 38.5222 27.7989 35.5383 28.8883 34.0341C29.9916 32.5107 32.8943 31.8121 35.131 30.1763C37.3517 28.5522 38.8934 25.992 40.7004 25.4024C42.4061 24.8459 45.1973 25.9765 48.0004 25.9765C50.8369 25.9765 53.5834 24.8421 55.3005 25.4024C57.1045 25.9911 58.6551 28.5566 60.8702 30.1764C63.0947 31.8036 66.012 32.5142 67.1128 34.0342C68.1989 35.5338 67.9806 38.5351 68.8377 41.1878V41.188C69.6768 43.7844 71.6255 46.0326 71.6255 47.9993C71.6255 49.9679 69.6786 52.2084 68.8379 54.8105ZM58.0787 40.978C58.933 41.8323 58.933 43.2173 58.0787 44.0715L47.1296 55.0206C46.2753 55.8749 44.8901 55.8748 44.0359 55.0206L37.9225 48.9072C37.0682 48.0529 37.0681 46.6679 37.9224 45.8136C38.7767 44.9594 40.162 44.9593 41.016 45.8136L45.5827 50.3803L54.9849 40.9781C55.8392 40.1237 57.2244 40.1237 58.0787 40.978Z" fill="white"/>
</g>
</svg>
