<svg width="96" height="96" viewBox="0 0 96 96" fill="none" xmlns="http://www.w3.org/2000/svg">
<circle cx="48" cy="48" r="46.8" stroke="white" stroke-width="2.4"/>
<g>
<path fill-rule="evenodd" clip-rule="evenodd" d="M26.6505 38.2044C26.6505 37.6331 27.1136 37.1699 27.6849 37.1699H69.0663C69.7186 37.1699 70.3646 37.2984 70.9673 37.5481C71.57 37.7977 72.1176 38.1636 72.5789 38.6249C73.0402 39.0862 73.4061 39.6338 73.6557 40.2365C73.9054 40.8392 74.0339 41.4851 74.0339 42.1375V60.4674C74.0339 61.0387 73.5707 61.5018 72.9994 61.5018H27.6849C27.1136 61.5018 26.6505 61.0387 26.6505 60.4674V38.2044ZM28.7194 39.2388V59.4329H71.965V42.1375C71.965 41.7568 71.89 41.3799 71.7443 41.0282C71.5987 40.6765 71.3851 40.357 71.116 40.0878C70.8468 39.8186 70.5273 39.6051 70.1756 39.4595C69.8239 39.3138 69.4469 39.2388 69.0663 39.2388H28.7194Z" fill="white"/>
<path fill-rule="evenodd" clip-rule="evenodd" d="M22.782 32.3137C22.782 31.7424 23.2451 31.2793 23.8164 31.2793C26.1185 31.2793 27.4272 32.3099 28.0962 33.465C28.4111 34.0088 28.5641 34.5432 28.6398 34.9353C28.6781 35.1334 28.6978 35.3013 28.708 35.4244C28.7131 35.4862 28.7158 35.5372 28.7173 35.5758L28.7187 35.6243L28.719 35.6413L28.719 35.6479L28.719 35.6507L28.719 35.652C28.719 35.6526 28.719 35.6532 27.6846 35.6532H28.719V64.5023C28.719 65.0736 28.2559 65.5368 27.6846 65.5368C27.1133 65.5368 26.6502 65.0736 26.6502 64.5023V35.6606C26.6501 35.6594 26.6501 35.6577 26.65 35.6556C26.6496 35.6453 26.6486 35.6246 26.6461 35.595C26.6412 35.5355 26.6307 35.4425 26.6085 35.3275C26.5633 35.0935 26.4745 34.793 26.3059 34.5019C26.0079 33.9873 25.3825 33.3482 23.8164 33.3482C23.2451 33.3482 22.782 32.885 22.782 32.3137Z" fill="white"/>
<path fill-rule="evenodd" clip-rule="evenodd" d="M32.5965 64.5022C32.5965 63.9309 33.0596 63.4678 33.6309 63.4678H57.7399C58.3112 63.4678 58.7744 63.9309 58.7744 64.5022C58.7744 65.0735 58.3112 65.5367 57.7399 65.5367H33.6309C33.0596 65.5367 32.5965 65.0735 32.5965 64.5022Z" fill="white"/>
<path fill-rule="evenodd" clip-rule="evenodd" d="M46.367 44.8509C43.8747 44.8509 41.8543 46.8713 41.8543 49.3636C41.8543 51.856 43.8747 53.8764 46.367 53.8764C48.8594 53.8764 50.8798 51.856 50.8798 49.3636C50.8798 46.8713 48.8594 44.8509 46.367 44.8509ZM39.7854 49.3636C39.7854 45.7287 42.7321 42.782 46.367 42.782C50.002 42.782 52.9487 45.7287 52.9487 49.3636C52.9487 52.9986 50.002 55.9453 46.367 55.9453C42.7321 55.9453 39.7854 52.9986 39.7854 49.3636Z" fill="white"/>
<path fill-rule="evenodd" clip-rule="evenodd" d="M39.7854 49.3633C39.7854 48.792 40.2485 48.3289 40.8198 48.3289H51.9235C52.4948 48.3289 52.958 48.792 52.958 49.3633C52.958 49.9346 52.4948 50.3977 51.9235 50.3977H40.8198C40.2485 50.3977 39.7854 49.9346 39.7854 49.3633Z" fill="white"/>
<path fill-rule="evenodd" clip-rule="evenodd" d="M49.9548 43.8485C50.4339 44.1598 50.5699 44.8005 50.2587 45.2795L44.2198 54.5743C43.9086 55.0534 43.2679 55.1895 42.7888 54.8782C42.3097 54.567 42.1737 53.9263 42.4849 53.4472L48.5238 44.1524C48.835 43.6733 49.4757 43.5373 49.9548 43.8485Z" fill="white"/>
<path fill-rule="evenodd" clip-rule="evenodd" d="M42.6459 43.9379C43.1167 43.6143 43.7607 43.7336 44.0843 44.2045L50.3643 53.3416C50.6879 53.8124 50.5686 54.4564 50.0978 54.78C49.6269 55.1036 48.9829 54.9843 48.6593 54.5134L42.3793 45.3763C42.0557 44.9055 42.1751 44.2615 42.6459 43.9379Z" fill="white"/>
<path fill-rule="evenodd" clip-rule="evenodd" d="M61.2651 44.8509C58.7727 44.8509 56.7523 46.8713 56.7523 49.3636C56.7523 51.856 58.7727 53.8764 61.2651 53.8764C63.7574 53.8764 65.7778 51.856 65.7778 49.3636C65.7778 46.8713 63.7574 44.8509 61.2651 44.8509ZM54.6834 49.3636C54.6834 45.7287 57.6301 42.782 61.2651 42.782C64.9 42.782 67.8467 45.7287 67.8467 49.3636C67.8467 52.9986 64.9 55.9453 61.2651 55.9453C57.6301 55.9453 54.6834 52.9986 54.6834 49.3636Z" fill="white"/>
<path fill-rule="evenodd" clip-rule="evenodd" d="M54.6834 49.3633C54.6834 48.792 55.1465 48.3289 55.7179 48.3289H66.8123C67.3836 48.3289 67.8467 48.792 67.8467 49.3633C67.8467 49.9346 67.3836 50.3977 66.8123 50.3977H55.7179C55.1465 50.3977 54.6834 49.9346 54.6834 49.3633Z" fill="white"/>
<path fill-rule="evenodd" clip-rule="evenodd" d="M64.8534 43.8489C65.3322 44.1605 65.4678 44.8013 65.1562 45.2801L59.1081 54.575C58.7965 55.0538 58.1557 55.1894 57.6769 54.8778C57.198 54.5662 57.0624 53.9254 57.374 53.4466L63.4221 44.1518C63.7337 43.6729 64.3745 43.5373 64.8534 43.8489Z" fill="white"/>
<path fill-rule="evenodd" clip-rule="evenodd" d="M57.5438 43.9375C58.0149 43.6142 58.6588 43.734 58.9821 44.2051L65.2528 53.3422C65.5761 53.8132 65.4563 54.4571 64.9853 54.7804C64.5142 55.1037 63.8703 54.9839 63.547 54.5128L57.2763 45.3757C56.953 44.9047 57.0728 44.2608 57.5438 43.9375Z" fill="white"/>
<path fill-rule="evenodd" clip-rule="evenodd" d="M34.1598 42.782C34.7311 42.782 35.1943 43.2451 35.1943 43.8164V54.9108C35.1943 55.4821 34.7311 55.9453 34.1598 55.9453C33.5885 55.9453 33.1254 55.4821 33.1254 54.9108V43.8164C33.1254 43.2451 33.5885 42.782 34.1598 42.782Z" fill="white"/>
</g>
</svg>
