<svg width="96" height="96" viewBox="0 0 96 96" fill="none" xmlns="http://www.w3.org/2000/svg">
<circle cx="48" cy="48" r="46.8" stroke="white" stroke-width="2.4"/>
<g>
<path d="M45.8957 27.0405V47.3267H72.8317V23L45.8957 27.0405ZM71.1482 45.6432H47.5792V28.4713L71.1482 25.0202V45.6432Z" fill="white"/>
<path d="M23.1684 47.579H44.2122V27.2085L23.1684 30.323V47.579ZM24.8519 31.754L42.5287 29.1445V45.8954H24.8519V31.754Z" fill="white"/>
<path d="M45.8957 68.9597L72.8317 73.0002V49.2627H45.8957V68.9597ZM47.5792 50.9462H71.1482V71.0641L47.5792 67.5286V50.9462Z" fill="white"/>
<path d="M23.1684 65.6769L44.2122 68.7914V49.2627H23.1684V65.6769ZM24.8519 50.9462H42.5287V66.8553L24.8519 64.2458V50.9462Z" fill="white"/>
</g>
</svg>
