<svg width="96" height="96" viewBox="0 0 96 96" fill="none" xmlns="http://www.w3.org/2000/svg">
<circle cx="48" cy="48" r="46.8" stroke="white" stroke-width="2.4"/>
<g>
<path fill-rule="evenodd" clip-rule="evenodd" d="M30.1786 36.3349C30.1786 32.961 32.9138 30.2258 36.2877 30.2258H59.6292C63.0032 30.2258 65.7383 32.961 65.7383 36.3349V59.6765C65.7383 63.0504 63.0032 65.7856 59.6293 65.7856H36.2877C32.9138 65.7856 30.1786 63.0504 30.1786 59.6765V36.3349ZM36.2877 32.6695C34.2633 32.6695 32.6223 34.3105 32.6223 36.3349V59.6765C32.6223 61.7008 34.2633 63.3419 36.2877 63.3419H59.6293C61.6536 63.3419 63.2947 61.7008 63.2947 59.6765V36.3349C63.2947 34.3105 61.6536 32.6695 59.6292 32.6695H36.2877Z" fill="white"/>
<path fill-rule="evenodd" clip-rule="evenodd" d="M38.7602 42.4728C38.7602 40.4485 40.4013 38.8074 42.4257 38.8074H53.4801C55.5045 38.8074 57.1456 40.4485 57.1456 42.4728V53.5273C57.1456 55.5517 55.5045 57.1927 53.4801 57.1927H42.4257C40.4013 57.1927 38.7602 55.5517 38.7602 53.5273V42.4728ZM42.4257 41.251C41.7509 41.251 41.2039 41.798 41.2039 42.4728V53.5273C41.2039 54.2021 41.7509 54.7491 42.4257 54.7491H53.4801C54.1549 54.7491 54.702 54.2021 54.702 53.5273V42.4728C54.702 41.798 54.1549 41.251 53.4801 41.251H42.4257Z" fill="white"/>
<path fill-rule="evenodd" clip-rule="evenodd" d="M37.1525 21.8208C37.8273 21.8208 38.3744 22.3678 38.3744 23.0426V31.4478C38.3744 32.1226 37.8273 32.6697 37.1525 32.6697C36.4778 32.6697 35.9307 32.1226 35.9307 31.4478V23.0426C35.9307 22.3678 36.4778 21.8208 37.1525 21.8208Z" fill="white"/>
<path fill-rule="evenodd" clip-rule="evenodd" d="M42.5524 21.8208C43.2271 21.8208 43.7742 22.3678 43.7742 23.0426V31.4478C43.7742 32.1226 43.2271 32.6697 42.5524 32.6697C41.8776 32.6697 41.3305 32.1226 41.3305 31.4478V23.0426C41.3305 22.3678 41.8776 21.8208 42.5524 21.8208Z" fill="white"/>
<path fill-rule="evenodd" clip-rule="evenodd" d="M47.9527 21.8208C48.6275 21.8208 49.1746 22.3678 49.1746 23.0426V31.4478C49.1746 32.1226 48.6275 32.6697 47.9527 32.6697C47.278 32.6697 46.7309 32.1226 46.7309 31.4478V23.0426C46.7309 22.3678 47.278 21.8208 47.9527 21.8208Z" fill="white"/>
<path fill-rule="evenodd" clip-rule="evenodd" d="M53.3525 21.8208C54.0273 21.8208 54.5743 22.3678 54.5743 23.0426V31.4478C54.5743 32.1226 54.0273 32.6697 53.3525 32.6697C52.6777 32.6697 52.1307 32.1226 52.1307 31.4478V23.0426C52.1307 22.3678 52.6777 21.8208 53.3525 21.8208Z" fill="white"/>
<path fill-rule="evenodd" clip-rule="evenodd" d="M58.7641 21.8208C59.4389 21.8208 59.9859 22.3678 59.9859 23.0426V31.4478C59.9859 32.1226 59.4389 32.6697 58.7641 32.6697C58.0893 32.6697 57.5423 32.1226 57.5423 31.4478V23.0426C57.5423 22.3678 58.0893 21.8208 58.7641 21.8208Z" fill="white"/>
<path fill-rule="evenodd" clip-rule="evenodd" d="M37.1525 63.3301C37.8273 63.3301 38.3744 63.8771 38.3744 64.5519V72.9571C38.3744 73.6319 37.8273 74.1789 37.1525 74.1789C36.4778 74.1789 35.9307 73.6319 35.9307 72.9571V64.5519C35.9307 63.8771 36.4778 63.3301 37.1525 63.3301Z" fill="white"/>
<path fill-rule="evenodd" clip-rule="evenodd" d="M42.5524 63.3301C43.2271 63.3301 43.7742 63.8771 43.7742 64.5519V72.9571C43.7742 73.6319 43.2271 74.1789 42.5524 74.1789C41.8776 74.1789 41.3305 73.6319 41.3305 72.9571V64.5519C41.3305 63.8771 41.8776 63.3301 42.5524 63.3301Z" fill="white"/>
<path fill-rule="evenodd" clip-rule="evenodd" d="M47.9527 63.3301C48.6275 63.3301 49.1746 63.8771 49.1746 64.5519V72.9571C49.1746 73.6319 48.6275 74.1789 47.9527 74.1789C47.278 74.1789 46.7309 73.6319 46.7309 72.9571V64.5519C46.7309 63.8771 47.278 63.3301 47.9527 63.3301Z" fill="white"/>
<path fill-rule="evenodd" clip-rule="evenodd" d="M53.3525 63.3301C54.0273 63.3301 54.5743 63.8771 54.5743 64.5519V72.9571C54.5743 73.6319 54.0273 74.1789 53.3525 74.1789C52.6777 74.1789 52.1307 73.6319 52.1307 72.9571V64.5519C52.1307 63.8771 52.6777 63.3301 53.3525 63.3301Z" fill="white"/>
<path fill-rule="evenodd" clip-rule="evenodd" d="M58.7641 63.3301C59.4389 63.3301 59.9859 63.8771 59.9859 64.5519V72.9571C59.9859 73.6319 59.4389 74.1789 58.7641 74.1789C58.0893 74.1789 57.5423 73.6319 57.5423 72.9571V64.5519C57.5423 63.8771 58.0893 63.3301 58.7641 63.3301Z" fill="white"/>
<path fill-rule="evenodd" clip-rule="evenodd" d="M63.2832 58.7995C63.2832 58.1247 63.8302 57.5776 64.505 57.5776H72.9103C73.585 57.5776 74.1321 58.1247 74.1321 58.7995C74.1321 59.4742 73.585 60.0213 72.9103 60.0213H64.505C63.8302 60.0213 63.2832 59.4742 63.2832 58.7995Z" fill="white"/>
<path fill-rule="evenodd" clip-rule="evenodd" d="M63.2832 53.4003C63.2832 52.7255 63.8302 52.1785 64.505 52.1785H72.9103C73.585 52.1785 74.1321 52.7255 74.1321 53.4003C74.1321 54.0751 73.585 54.6221 72.9103 54.6221H64.505C63.8302 54.6221 63.2832 54.0751 63.2832 53.4003Z" fill="white"/>
<path fill-rule="evenodd" clip-rule="evenodd" d="M63.2832 47.9994C63.2832 47.3246 63.8302 46.7776 64.505 46.7776H72.9103C73.585 46.7776 74.1321 47.3246 74.1321 47.9994C74.1321 48.6742 73.585 49.2212 72.9103 49.2212H64.505C63.8302 49.2212 63.2832 48.6742 63.2832 47.9994Z" fill="white"/>
<path fill-rule="evenodd" clip-rule="evenodd" d="M63.2832 42.6002C63.2832 41.9254 63.8302 41.3784 64.505 41.3784H72.9103C73.585 41.3784 74.1321 41.9254 74.1321 42.6002C74.1321 43.275 73.585 43.8221 72.9103 43.8221H64.505C63.8302 43.8221 63.2832 43.275 63.2832 42.6002Z" fill="white"/>
<path fill-rule="evenodd" clip-rule="evenodd" d="M63.2832 37.1998C63.2832 36.5251 63.8302 35.978 64.505 35.978H72.9103C73.585 35.978 74.1321 36.5251 74.1321 37.1998C74.1321 37.8746 73.585 38.4217 72.9103 38.4217H64.505C63.8302 38.4217 63.2832 37.8746 63.2832 37.1998Z" fill="white"/>
<path fill-rule="evenodd" clip-rule="evenodd" d="M21.7735 58.7995C21.7735 58.1247 22.3205 57.5776 22.9953 57.5776H31.4005C32.0753 57.5776 32.6223 58.1247 32.6223 58.7995C32.6223 59.4742 32.0753 60.0213 31.4005 60.0213H22.9953C22.3205 60.0213 21.7735 59.4742 21.7735 58.7995Z" fill="white"/>
<path fill-rule="evenodd" clip-rule="evenodd" d="M21.7735 53.4003C21.7735 52.7255 22.3205 52.1785 22.9953 52.1785H31.4005C32.0753 52.1785 32.6223 52.7255 32.6223 53.4003C32.6223 54.0751 32.0753 54.6221 31.4005 54.6221H22.9953C22.3205 54.6221 21.7735 54.0751 21.7735 53.4003Z" fill="white"/>
<path fill-rule="evenodd" clip-rule="evenodd" d="M21.7735 47.9994C21.7735 47.3246 22.3205 46.7776 22.9953 46.7776H31.4005C32.0753 46.7776 32.6223 47.3246 32.6223 47.9994C32.6223 48.6742 32.0753 49.2212 31.4005 49.2212H22.9953C22.3205 49.2212 21.7735 48.6742 21.7735 47.9994Z" fill="white"/>
<path fill-rule="evenodd" clip-rule="evenodd" d="M21.7735 42.6002C21.7735 41.9254 22.3205 41.3784 22.9953 41.3784H31.4005C32.0753 41.3784 32.6223 41.9254 32.6223 42.6002C32.6223 43.275 32.0753 43.8221 31.4005 43.8221H22.9953C22.3205 43.8221 21.7735 43.275 21.7735 42.6002Z" fill="white"/>
<path fill-rule="evenodd" clip-rule="evenodd" d="M21.7735 37.1998C21.7735 36.5251 22.3205 35.978 22.9953 35.978H31.4005C32.0753 35.978 32.6223 36.5251 32.6223 37.1998C32.6223 37.8746 32.0753 38.4217 31.4005 38.4217H22.9953C22.3205 38.4217 21.7735 37.8746 21.7735 37.1998Z" fill="white"/>
</g>
</svg>
