<svg width="32" height="32" viewBox="0 0 32 32" fill="none" xmlns="http://www.w3.org/2000/svg">
<path fill-rule="evenodd" clip-rule="evenodd" d="M16 32C24.8366 32 32 24.8366 32 16C32 7.16344 24.8366 0 16 0C7.16344 0 0 7.16344 0 16C0 24.8366 7.16344 32 16 32ZM15.36 22.3944L16.3223 23.2435L17.2847 22.3944L26.7499 14.0427C27.3523 13.5112 27.4097 12.5921 26.8782 11.9897C26.3467 11.3873 25.4276 11.3299 24.8252 11.8614L16.3223 19.3639L7.8195 11.8614C7.21714 11.3299 6.29797 11.3873 5.76647 11.9897C5.23497 12.5921 5.29242 13.5112 5.89478 14.0427L15.36 22.3944Z" fill="white"/>
</svg>
