<svg width="33" height="32" viewBox="0 0 33 32" fill="none" xmlns="http://www.w3.org/2000/svg">
<path fill-rule="evenodd" clip-rule="evenodd" d="M16.9033 0C8.06676 0 0.90332 7.16344 0.90332 16C0.90332 24.8366 8.06676 32 16.9033 32C25.7399 32 32.9033 24.8366 32.9033 16C32.9033 7.16344 25.7399 0 16.9033 0ZM14.2957 24.9982H19.7965C20.0461 24.9982 20.1709 24.883 20.1709 24.6526V23.4142C20.1709 23.1838 20.0461 23.0686 19.7965 23.0686H18.2701V11.1742C18.2701 10.9438 18.1549 10.8286 17.9245 10.8286H14.2957C14.0461 10.8286 13.9213 10.9438 13.9213 11.1742V12.4126C13.9213 12.643 14.0461 12.7582 14.2957 12.7582H15.8797V23.0686H14.2957C14.0461 23.0686 13.9213 23.1838 13.9213 23.4142V24.6526C13.9213 24.883 14.0461 24.9982 14.2957 24.9982ZM18.6445 7.71816C18.6445 7.27656 18.4813 6.89256 18.1549 6.56616C17.8477 6.23976 17.4733 6.07656 17.0317 6.07656C16.5901 6.07656 16.2061 6.23976 15.8797 6.56616C15.5725 6.89256 15.4189 7.27656 15.4189 7.71816C15.4189 8.15976 15.5725 8.53416 15.8797 8.84136C16.2061 9.14856 16.5901 9.30216 17.0317 9.30216C17.4733 9.30216 17.8477 9.14856 18.1549 8.84136C18.4813 8.53416 18.6445 8.15976 18.6445 7.71816Z" fill="white" fill-opacity="0.8"/>
</svg>
