<svg width="96" height="96" viewBox="0 0 96 96" fill="none" xmlns="http://www.w3.org/2000/svg">
<circle cx="48" cy="48" r="46.8" stroke="white" stroke-width="2.4"/>
<path fill-rule="evenodd" clip-rule="evenodd" d="M39.1949 20.329C39.3935 20.126 39.6708 20 39.9771 20H64.1955C65.558 20 66.7958 20.5567 67.6921 21.4531C68.5889 22.3498 69.1456 23.5876 69.1456 24.9496V27.2499C69.1456 27.8549 68.6551 28.3454 68.0502 28.3454C67.4452 28.3454 66.9547 27.8549 66.9547 27.2499V24.9496C66.9547 24.1921 66.6441 23.5026 66.1434 23.0023C65.6431 22.5015 64.9535 22.1909 64.196 22.1909H41.0726V33.1959C41.0726 33.8009 40.5821 34.2914 39.9771 34.2914H28.9722V59.9872C28.9722 60.5921 28.4817 61.0826 27.8767 61.0826C27.2717 61.0826 26.7812 60.5921 26.7812 59.9872V33.1959C26.7812 33.0126 26.8265 32.8396 26.906 32.6879C26.9598 32.5862 27.0282 32.4939 27.1102 32.4136L39.1949 20.329ZM68.0502 34.9177C67.4452 34.9177 66.9547 35.4077 66.9547 36.0127V71.0503C66.9547 71.8078 66.6441 72.4973 66.1434 72.9976C65.6426 73.4984 64.9535 73.809 64.1955 73.809H31.7309C30.9734 73.809 30.2838 73.4984 29.7831 72.9976C29.2828 72.4973 28.9722 71.8078 28.9722 71.0503V68.75C28.9722 68.145 28.4817 67.6545 27.8767 67.6545C27.2717 67.6545 26.7813 68.145 26.7813 68.75V71.0503C26.7813 72.4127 27.338 73.6505 28.2343 74.5468C29.1311 75.4436 30.3688 75.9999 31.7309 75.9999H64.196C65.5585 75.9999 66.7958 75.4436 67.6925 74.5468C68.5889 73.65 69.1456 72.4127 69.1456 71.0503V36.0127C69.1452 35.4077 68.6551 34.9177 68.0502 34.9177ZM68.0502 30.5359C67.4452 30.5359 66.9547 31.0263 66.9547 31.6313C66.9547 32.2363 67.4452 32.7268 68.0502 32.7268C68.6551 32.7268 69.1452 32.2363 69.1452 31.6313C69.1452 31.0263 68.6551 30.5359 68.0502 30.5359ZM27.8767 63.2731C28.4817 63.2731 28.9722 63.7636 28.9722 64.3686C28.9722 64.9735 28.4817 65.464 27.8767 65.464C27.2717 65.464 26.7813 64.9735 26.7813 64.3686C26.7813 63.7636 27.2717 63.2731 27.8767 63.2731ZM45.0481 66.586C44.4436 66.586 43.9531 66.0955 43.9531 65.4905C43.9531 64.8855 44.4436 64.3951 45.0481 64.3951H62.6404C63.2449 64.3951 63.7358 64.8855 63.7358 65.4905C63.7358 66.0955 63.2449 66.586 62.6404 66.586H45.0481ZM45.0481 55.6831H62.6404C63.2449 55.6831 63.7358 55.1926 63.7358 54.5881C63.7358 53.9831 63.2449 53.4926 62.6404 53.4926H45.0481C44.4436 53.4926 43.9531 53.9831 43.9531 54.5881C43.9531 55.1926 44.4436 55.6831 45.0481 55.6831ZM45.0481 44.7806H62.6404C63.2449 44.7806 63.7358 44.2902 63.7358 43.6852C63.7358 43.0802 63.2449 42.5897 62.6404 42.5897H45.0481C44.4436 42.5897 43.9531 43.0802 43.9531 43.6852C43.9531 44.2902 44.4436 44.7806 45.0481 44.7806ZM31.6373 65.2739L34.4456 68.0822C34.8733 68.5094 35.5667 68.5094 35.9944 68.0822L41.6105 62.4656C42.0382 62.0379 42.0382 61.3445 41.6105 60.9168C41.1828 60.4892 40.4894 60.4892 40.0617 60.9168L35.2198 65.7588L33.1861 63.7251C32.7584 63.2975 32.065 63.2975 31.6373 63.7251C31.2096 64.1528 31.2096 64.8462 31.6373 65.2739ZM31.6373 54.371L34.4456 57.1793C34.8733 57.607 35.5667 57.607 35.9944 57.1793L41.6105 51.5632C42.0382 51.1355 42.0382 50.4421 41.6105 50.014C41.1828 49.5863 40.4894 49.5863 40.0617 50.014L35.2198 54.8559L33.1861 52.8223C32.7584 52.3946 32.065 52.3946 31.6373 52.8223C31.2096 53.2499 31.2096 53.9434 31.6373 54.371ZM31.6373 43.4682L34.4456 46.2764C34.8733 46.7041 35.5667 46.7041 35.9944 46.2764L41.6105 40.6603C42.0382 40.2326 42.0382 39.5392 41.6105 39.1115C41.1828 38.6834 40.4894 38.6834 40.0617 39.1115L35.2198 43.9531L33.1861 41.9194C32.7584 41.4917 32.065 41.4917 31.6373 41.9194C31.2096 42.3471 31.2096 43.0405 31.6373 43.4682ZM30.5209 32.1004H38.8817V23.7397L30.5209 32.1004Z" fill="white"/>
</svg>
