<svg width="96" height="96" viewBox="0 0 96 96" fill="none" xmlns="http://www.w3.org/2000/svg">
<circle cx="48" cy="48" r="46.8" stroke="white" stroke-width="2.4"/>
<g>
<path d="M47.6757 64.4874C47.377 64.4874 47.0784 64.3731 46.8497 64.1467L31.8534 49.1504C31.4147 48.7117 31.396 48.0094 31.8067 47.5474L43.0464 34.9567C50.9027 25.7657 63.6964 19.8181 74.852 20.0071C75.475 20.0211 75.9767 20.5227 75.9907 21.1457C76.2497 32.3084 70.2344 45.0951 61.02 52.9677L48.4504 64.1911C48.231 64.3894 47.951 64.4874 47.6757 64.4874ZM34.2824 48.2801L47.72 61.7177L59.487 51.2131C67.901 44.0217 73.4894 32.5604 73.662 22.3381C63.4397 22.5084 51.9807 28.0967 44.8034 36.4921L34.2824 48.2801Z" fill="white"/>
<path d="M52.144 73.0273C52.032 73.0273 51.9177 73.011 51.8103 72.976C51.3903 72.836 51.045 72.514 50.9843 72.0753L49.3837 60.9056C49.2927 60.2686 49.736 59.6783 50.373 59.585C51.01 59.4846 51.6003 59.935 51.6937 60.5743L52.9443 69.301C57.0323 64.4126 59.305 58.2153 59.305 51.8966C59.305 51.2526 59.8277 50.73 60.4717 50.73C61.1157 50.73 61.6383 51.2526 61.6383 51.8966C61.6383 59.627 58.507 67.194 53.047 72.6516C52.8137 72.885 52.473 73.0273 52.144 73.0273Z" fill="white"/>
<path d="M35.2623 46.628C35.2087 46.628 35.1527 46.6257 35.0967 46.6164L23.927 45.0157C23.4883 44.9527 23.122 44.647 22.9843 44.2247C22.8467 43.8047 22.9587 43.3404 23.2737 43.03C28.8107 37.493 36.3753 34.3617 44.1057 34.3617C44.7497 34.3617 45.2723 34.8844 45.2723 35.5284C45.2723 36.1724 44.7497 36.695 44.1057 36.695C37.7567 36.695 31.5267 38.9887 26.6897 43.0534L35.428 44.3064C36.065 44.3997 36.5083 44.9877 36.4173 45.627C36.331 46.208 35.8317 46.628 35.2623 46.628Z" fill="white"/>
<path d="M59.977 41.854C58.4813 41.854 56.988 41.2847 55.8517 40.1483C53.579 37.8733 53.579 34.1727 55.8517 31.8977C58.1267 29.6227 61.8273 29.6227 64.1023 31.8977C66.375 34.1727 66.375 37.8733 64.1023 40.1483C62.9636 41.287 61.4703 41.854 59.977 41.854ZM59.977 32.5253C59.081 32.5253 58.1827 32.866 57.5013 33.5473C56.1387 34.9123 56.1387 37.1337 57.5013 38.4987C58.8663 39.8613 61.0877 39.859 62.4527 38.4987C63.8153 37.1337 63.8153 34.9123 62.4527 33.5473C61.769 32.8683 60.873 32.5253 59.977 32.5253ZM63.2763 39.3247H63.2996H63.2763Z" fill="white"/>
<path d="M21.1667 76.0001C20.861 76.0001 20.5647 75.8811 20.3407 75.6594C20.0373 75.3561 19.9253 74.9104 20.049 74.4997C20.4317 73.2234 23.8593 61.9441 26.356 59.4474C29.1677 56.6357 33.7434 56.6334 36.555 59.4474C39.3667 62.2591 39.3667 66.8347 36.555 69.6464C34.0584 72.1431 22.779 75.5707 21.5027 75.9534C21.3907 75.9837 21.2787 76.0001 21.1667 76.0001ZM31.4567 59.6691C30.206 59.6691 28.9577 60.1451 28.0057 61.0947C26.6594 62.4434 24.4193 68.4657 22.94 73.0601C27.532 71.5807 33.5567 69.3407 34.903 67.9944C36.8047 66.0927 36.8047 62.9964 34.903 61.0947C33.9534 60.1451 32.705 59.6691 31.4567 59.6691Z" fill="white"/>
</g>
</svg>
