<svg width="96" height="96" viewBox="0 0 96 96" fill="none" xmlns="http://www.w3.org/2000/svg">
<circle cx="48" cy="48" r="46.8" stroke="white" stroke-width="2.4"/>
<g>
<path fill-rule="evenodd" clip-rule="evenodd" d="M20.6618 33.3762C20.6618 32.8359 21.0998 32.3979 21.6401 32.3979H74.2254C74.7657 32.3979 75.2036 32.8359 75.2036 33.3762V57.2276C75.2036 57.7679 74.7657 58.2059 74.2254 58.2059H21.6401C21.0998 58.2059 20.6618 57.7679 20.6618 57.2276V33.3762ZM22.6184 34.3545V56.2493H73.2471V34.3545H22.6184Z" fill="white"/>
<path fill-rule="evenodd" clip-rule="evenodd" d="M39.8815 39.613C39.8815 39.0728 40.3195 38.6348 40.8597 38.6348H44.6996C45.2399 38.6348 45.6779 39.0728 45.6779 39.613V50.3306C45.6779 50.8709 45.2399 51.3089 44.6996 51.3089H40.8597C40.3195 51.3089 39.8815 50.8709 39.8815 50.3306V39.613ZM41.838 40.5913V49.3523H43.7213V40.5913H41.838Z" fill="white"/>
<path fill-rule="evenodd" clip-rule="evenodd" d="M28.4415 39.613C28.4415 39.0728 28.8795 38.6348 29.4198 38.6348H33.2597C33.8 38.6348 34.238 39.0728 34.238 39.613V50.3306C34.238 50.8709 33.8 51.3089 33.2597 51.3089H29.4198C28.8795 51.3089 28.4415 50.8709 28.4415 50.3306V39.613ZM30.3981 40.5913V49.3523H32.2814V40.5913H30.3981Z" fill="white"/>
<path fill-rule="evenodd" clip-rule="evenodd" d="M51.3208 39.613C51.3208 39.0728 51.7588 38.6348 52.2991 38.6348H56.139C56.6792 38.6348 57.1172 39.0728 57.1172 39.613V50.3306C57.1172 50.8709 56.6792 51.3089 56.139 51.3089H52.2991C51.7588 51.3089 51.3208 50.8709 51.3208 50.3306V39.613ZM53.2774 40.5913V49.3523H55.1607V40.5913H53.2774Z" fill="white"/>
<path fill-rule="evenodd" clip-rule="evenodd" d="M62.7607 39.613C62.7607 39.0728 63.1987 38.6348 63.739 38.6348H67.5789C68.1192 38.6348 68.5572 39.0728 68.5572 39.613V50.3306C68.5572 50.8709 68.1192 51.3089 67.5789 51.3089H63.739C63.1987 51.3089 62.7607 50.8709 62.7607 50.3306V39.613ZM64.7173 40.5913V49.3523H66.6006V40.5913H64.7173Z" fill="white"/>
<path fill-rule="evenodd" clip-rule="evenodd" d="M26.7277 61.6887C26.7277 61.1484 27.1657 60.7104 27.706 60.7104H67.5786C68.1189 60.7104 68.5569 61.1484 68.5569 61.6887C68.5569 62.229 68.1189 62.667 67.5786 62.667H27.706C27.1657 62.667 26.7277 62.229 26.7277 61.6887Z" fill="white"/>
</g>
</svg>
