<svg width="96" height="96" viewBox="0 0 96 96" fill="none" xmlns="http://www.w3.org/2000/svg">
<circle cx="48" cy="48" r="46.8" stroke="white" stroke-width="2.4"/>
<g>
<path d="M54.3434 31.0558C45.0003 31.0558 37.3992 38.6569 37.3992 48.0001C37.3992 57.3432 45.0004 64.9443 54.3434 64.9443C63.6865 64.9443 71.2877 57.3432 71.2877 48.0001C71.2877 38.6569 63.6865 31.0558 54.3434 31.0558ZM54.3434 62.7568C46.2065 62.7568 39.5867 56.137 39.5867 48.0001C39.5867 39.8631 46.2065 33.2433 54.3434 33.2433C62.4804 33.2433 69.1002 39.8631 69.1002 48.0001C69.1002 56.137 62.4804 62.7568 54.3434 62.7568Z" fill="white"/>
<path d="M64.7283 46.9065H56.2362C55.8577 46.2531 55.1527 45.8125 54.3433 45.8125C54.1476 45.8125 53.9591 45.8406 53.7786 45.8888L51.7705 43.8807C51.3434 43.4537 50.6508 43.4537 50.2237 43.8807C49.7966 44.3078 49.7966 45.0003 50.2237 45.4276L52.2318 47.4356C52.1837 47.6161 52.1556 47.8047 52.1556 48.0003C52.1556 49.2086 53.1352 50.1881 54.3434 50.1881C55.1528 50.1881 55.8578 49.7474 56.2363 49.094H64.7284C65.3324 49.094 65.8221 48.6043 65.8221 48.0003C65.8221 47.3963 65.3323 46.9065 64.7283 46.9065Z" fill="white"/>
<path d="M54.3434 26.3435C47.234 26.3435 40.9144 29.7873 36.9634 35.0938H27C26.3959 35.0938 25.9062 35.5836 25.9062 36.1876C25.9062 36.7916 26.3959 37.2813 27 37.2813H35.5308C34.8579 38.4577 34.2922 39.7028 33.8471 41.0035C33.825 41.0022 33.803 41.0001 33.7806 41.0001H21.0938C20.4897 41.0001 20 41.4899 20 42.0938C20 42.6978 20.4897 43.1876 21.0938 43.1876H33.2265C32.9521 44.3925 32.7778 45.6351 32.7143 46.9063H28.5315C27.9274 46.9063 27.4377 47.3961 27.4377 48.0001C27.4377 48.6041 27.9274 49.0938 28.5315 49.0938H32.7143C32.8886 52.5814 33.8922 55.8541 35.5308 58.7188H21.0938C20.4897 58.7188 20 59.2086 20 59.8126C20 60.4166 20.4897 60.9063 21.0938 60.9063H36.9634C40.9142 66.213 47.234 69.6567 54.3434 69.6567C66.2849 69.6567 76 59.9416 76 48.0001C76 36.0585 66.2849 26.3435 54.3434 26.3435ZM54.3434 67.4692C43.6082 67.4692 34.8743 58.7354 34.8743 48.0001C34.8743 37.2648 43.608 28.531 54.3434 28.531C65.0788 28.531 73.8125 37.2648 73.8125 48.0001C73.8125 58.7354 65.0787 67.4692 54.3434 67.4692Z" fill="white"/>
<path d="M54.3438 57.2916C54.055 57.2916 53.7739 57.4085 53.5694 57.6121C53.3659 57.8155 53.25 58.0976 53.25 58.3854C53.25 58.673 53.3659 58.9552 53.5694 59.1585C53.7739 59.362 54.0561 59.4791 54.3438 59.4791C54.6314 59.4791 54.9125 59.3621 55.117 59.1585C55.3205 58.9552 55.4375 58.673 55.4375 58.3854C55.4375 58.0976 55.3205 57.8155 55.117 57.6121C54.9136 57.4087 54.6314 57.2916 54.3438 57.2916Z" fill="white"/>
<path d="M54.3438 38.709C54.6314 38.709 54.9136 38.592 55.117 38.3885C55.3205 38.1851 55.4375 37.9029 55.4375 37.6152C55.4375 37.3276 55.3205 37.0454 55.117 36.842C54.9136 36.6386 54.6314 36.5215 54.3438 36.5215C54.055 36.5215 53.7739 36.6385 53.5705 36.842C53.3659 37.0454 53.25 37.3276 53.25 37.6152C53.25 37.9029 53.3659 38.1851 53.5705 38.3885C53.7739 38.5918 54.0561 38.709 54.3438 38.709Z" fill="white"/>
<path d="M43.9586 46.9064C43.6709 46.9064 43.3887 47.0233 43.1853 47.2268C42.9819 47.4303 42.8648 47.7125 42.8648 48.0001C42.8648 48.2878 42.9819 48.57 43.1853 48.7733C43.3887 48.9767 43.6709 49.0939 43.9586 49.0939C44.2462 49.0939 44.5284 48.9768 44.7319 48.7733C44.9353 48.57 45.0523 48.2878 45.0523 48.0001C45.0523 47.7125 44.9353 47.4303 44.7319 47.2268C44.5284 47.0233 44.2462 46.9064 43.9586 46.9064Z" fill="white"/>
<path d="M21.0938 55.0001H27C27.6041 55.0001 28.0938 54.5103 28.0938 53.9064C28.0938 53.3024 27.6041 52.8126 27 52.8126H21.0938C20.4897 52.8126 20 53.3024 20 53.9064C20 54.5103 20.4897 55.0001 21.0938 55.0001Z" fill="white"/>
</g>
</svg>
