<svg width="80" height="48" viewBox="0 0 80 48" fill="none" xmlns="http://www.w3.org/2000/svg">
<path d="M76 24L76.5347 24.845L77.8703 24L76.5347 23.1549L76 24ZM44.3902 43.9999H43.3902V45.816L44.9249 44.845L44.3902 43.9999ZM44.3902 4L44.9249 3.15494L43.3902 2.18393V4H44.3902ZM44.3902 12.4529V13.4529H45.3902V12.4529H44.3902ZM4 12.4529V11.4529H3V12.4529H4ZM4 35.5469H3V36.5469H4V35.5469ZM44.3902 35.5469H45.3902V34.5469H44.3902V35.5469ZM75.4653 23.1549L43.8556 43.1549L44.9249 44.845L76.5347 24.845L75.4653 23.1549ZM43.8556 4.84506L75.4653 24.845L76.5347 23.1549L44.9249 3.15494L43.8556 4.84506ZM45.3902 12.4529V4H43.3902V12.4529H45.3902ZM4 13.4529H44.3902V11.4529H4V13.4529ZM5 35.5469V12.4529H3V35.5469H5ZM44.3902 34.5469H4V36.5469H44.3902V34.5469ZM45.3902 43.9999V35.5469H43.3902V43.9999H45.3902Z" fill="#D43C38"/>
</svg>
