<svg width="65" height="62" viewBox="0 0 65 62" fill="none" xmlns="http://www.w3.org/2000/svg">
<path d="M59.0139 39.44V40.44H60.0139V39.44H59.0139ZM41.8539 39.44V38.44H40.8539V39.44H41.8539ZM41.8539 56.08V57.08H42.8539V56.08H41.8539ZM23.1339 56.08H22.1339V57.08H23.1339V56.08ZM23.1339 39.44H24.1339V38.44H23.1339V39.44ZM5.97391 39.44H4.97391V40.44H5.97391V39.44ZM5.97391 21.76V20.76H4.97391V21.76H5.97391ZM23.1339 21.76V22.76H24.1339V21.76H23.1339ZM23.1339 5.12V4.12H22.1339V5.12H23.1339ZM41.8539 5.12H42.8539V4.12H41.8539V5.12ZM41.8539 21.76H40.8539V22.76H41.8539V21.76ZM59.0139 21.76H60.0139V20.76H59.0139V21.76ZM59.0139 38.44H41.8539V40.44H59.0139V38.44ZM40.8539 39.44V56.08H42.8539V39.44H40.8539ZM41.8539 55.08H23.1339V57.08H41.8539V55.08ZM24.1339 56.08V39.44H22.1339V56.08H24.1339ZM23.1339 38.44H5.97391V40.44H23.1339V38.44ZM6.97391 39.44V21.76H4.97391V39.44H6.97391ZM5.97391 22.76H23.1339V20.76H5.97391V22.76ZM24.1339 21.76V5.12H22.1339V21.76H24.1339ZM23.1339 6.12H41.8539V4.12H23.1339V6.12ZM40.8539 5.12V21.76H42.8539V5.12H40.8539ZM41.8539 22.76H59.0139V20.76H41.8539V22.76ZM58.0139 21.76V39.44H60.0139V21.76H58.0139Z" fill="#D43C38"/>
</svg>
