<svg width="32" height="32" viewBox="0 0 32 32" fill="none" xmlns="http://www.w3.org/2000/svg">
  <path fill-rule="evenodd" clip-rule="evenodd" d="M32 16C32 7.16344 24.8366 -1.08564e-06 16 -6.99382e-07C7.16344 -3.13124e-07 -1.08564e-06 7.16344 -6.99382e-07 16C-3.13124e-07 24.8366 7.16344 32 16 32C24.8366 32 32 24.8366 32 16ZM22.3944 16.64L23.2435 15.6777L22.3944 14.7153L14.0427 5.25009C13.5112 4.64773 12.5921 4.59028 11.9897 5.12178C11.3873 5.65328 11.3299 6.57245 11.8614 7.17481L19.3639 15.6777L11.8614 24.1805C11.3299 24.7829 11.3873 25.702 11.9897 26.2335C12.5921 26.765 13.5112 26.7076 14.0427 26.1052L22.3944 16.64Z"/>
</svg>
