<svg width="32" height="32" viewBox="0 0 32 32" fill="none" xmlns="http://www.w3.org/2000/svg">
  <path fill-rule="evenodd" clip-rule="evenodd" d="M1.90798e-07 16C2.96173e-07 24.8366 7.16344 32 16 32C24.8366 32 32 24.8366 32 16C32 7.16344 24.8366 8.54232e-08 16 1.90798e-07C7.16344 2.96173e-07 8.54232e-08 7.16344 1.90798e-07 16ZM9.60562 15.36L8.75648 16.3223L9.60562 17.2847L17.9573 26.7499C18.4888 27.3523 19.4079 27.4097 20.0103 26.8782C20.6127 26.3467 20.6701 25.4276 20.1386 24.8252L12.6361 16.3223L20.1386 7.8195C20.6701 7.21714 20.6127 6.29797 20.0103 5.76647C19.4079 5.23497 18.4888 5.29242 17.9573 5.89478L9.60562 15.36Z"/>
</svg>
