<svg width="251" height="96" viewBox="0 0 251 96" fill="none" xmlns="http://www.w3.org/2000/svg">
<path d="M36.35 34.46H27.77L25.14 28.13H10.84L8.44 34.46H0L12.9 2.45996H22.14L36.35 34.46ZM17.64 10.12L13 22.55H22.8L17.64 10.12Z" fill="white"/>
<path d="M67.53 2.46997H74.53V34.47H66.53V14.47L57.9 24.47H56.65L48 14.48V34.48H40V2.47997H47L57.26 14.34L67.53 2.46997Z" fill="white"/>
<path d="M94.68 2.46997C106.36 2.46997 112.37 9.73997 112.37 18.47C112.37 27.67 106.55 34.47 93.79 34.47H80.56V2.46997H94.68ZM88.54 28.6H93.74C101.74 28.6 104.16 23.16 104.16 18.47C104.16 12.98 101.16 8.33997 93.65 8.33997H88.54V28.6Z" fill="white"/>
<path d="M144.73 10.06H128.23L118.18 0H154.78V36.61L144.73 26.55V10.06Z" fill="white"/>
<path d="M128.22 26.5601V12.0701L117.87 22.4301V36.9201H132.36L142.71 26.5601H128.22Z" fill="white"/>
<path d="M101.57 61.7299H130.5L101.57 86.6399V95.0299H143.17V86.7099H114.25L143.17 61.7999V53.4099H101.57V61.7299Z" fill="white"/>
<path d="M70.93 69.9199L59.02 53.4099H48.74L66.73 78.3799V95.0299H75.05V78.3799L93.13 53.4099H82.85L70.93 69.9199Z" fill="white"/>
<path d="M196.39 53.4099H154.79V61.7399H196.39V53.4099Z" fill="white"/>
<path d="M154.79 70.0601V95.0301H196.4V86.7101H163.12V78.3801H196.4V70.0601H154.79Z" fill="white"/>
<path d="M8.33 78.3799H23.68L33.3 94.9999H42.91L33.3 78.3799C34.3934 78.3812 35.4764 78.167 36.487 77.7495C37.4976 77.3319 38.416 76.7193 39.1896 75.9466C39.9632 75.1739 40.577 74.2562 40.9957 73.2462C41.4145 72.2361 41.63 71.1534 41.63 70.0599V61.7299C41.63 60.6365 41.4145 59.5538 40.9957 58.5437C40.577 57.5336 39.9632 56.616 39.1896 55.8433C38.416 55.0705 37.4976 54.4579 36.487 54.0404C35.4764 53.6228 34.3934 53.4086 33.3 53.4099H0V61.7299H32.71C32.8665 61.7299 33.0165 61.7921 33.1272 61.9027C33.2378 62.0134 33.3 62.1634 33.3 62.3199V69.4699C33.3 69.6264 33.2378 69.7765 33.1272 69.8871C33.0165 69.9978 32.8665 70.0599 32.71 70.0599H0V94.9999H8.33V78.3799Z" fill="white"/>
<path d="M242.32 53.4199V82.3499L217.41 53.4199H209.03V95.0199H217.34V66.0899L242.26 95.0199H250.64V53.4199H242.32Z" fill="white"/>
</svg>
